<svg width="169" height="30" viewBox="0 0 169 30" fill="none" xmlns="http://www.w3.org/2000/svg">
<g clip-path="url(#clip0_6_483)">
<path d="M15 13.75V10L20 15L15 20V16.25H10V13.75H15ZM15 2.5C21.9 2.5 27.5 8.1 27.5 15C27.5 21.9 21.9 27.5 15 27.5C8.1 27.5 2.5 21.9 2.5 15C2.5 8.1 8.1 2.5 15 2.5ZM15 25C20.525 25 25 20.525 25 15C25 9.475 20.525 5 15 5C9.475 5 5 9.475 5 15C5 20.525 9.475 25 15 25Z" fill="#F14CFF"/>
</g>
<path d="M36.416 4.24H53.44V9.456H52.608L51.68 6.096C51.616 5.84 51.5413 5.65867 51.456 5.552C51.392 5.424 51.2533 5.34933 51.04 5.328C50.8267 5.28533 50.464 5.264 49.952 5.264H46.336V23.408C46.336 24.1547 46.368 24.592 46.432 24.72C46.496 24.848 46.6987 24.9333 47.04 24.976L48.8 25.168V26H41.088V25.168L42.848 24.976C43.1893 24.9333 43.392 24.848 43.456 24.72C43.52 24.592 43.552 24.1547 43.552 23.408V5.264H39.904C39.4133 5.264 39.0507 5.28533 38.816 5.328C38.6027 5.34933 38.4533 5.424 38.368 5.552C38.304 5.65867 38.24 5.84 38.176 6.096L37.248 9.456H36.416V4.24ZM58.739 6.576C58.227 6.576 57.8003 6.416 57.459 6.096C57.139 5.75467 56.979 5.31733 56.979 4.784C56.979 4.272 57.139 3.856 57.459 3.536C57.8003 3.216 58.227 3.056 58.739 3.056C59.251 3.056 59.667 3.216 59.987 3.536C60.3283 3.856 60.499 4.272 60.499 4.784C60.499 5.31733 60.3283 5.75467 59.987 6.096C59.667 6.416 59.251 6.576 58.739 6.576ZM54.995 11.024V10.16H60.083V23.408C60.083 24.1547 60.115 24.592 60.179 24.72C60.243 24.848 60.4457 24.9333 60.787 24.976L62.547 25.168V26H54.995V25.168L56.755 24.976C57.0963 24.9333 57.299 24.848 57.363 24.72C57.427 24.592 57.459 24.1547 57.459 23.408V12.752C57.459 12.0053 57.427 11.568 57.363 11.44C57.299 11.312 57.0963 11.2267 56.755 11.184L54.995 11.024ZM82.4455 25.168V26H74.8935V25.168L76.6535 24.976C76.9948 24.9333 77.1975 24.848 77.2615 24.72C77.3255 24.592 77.3575 24.1547 77.3575 23.408V15.44C77.3575 13.8613 77.1015 12.752 76.5895 12.112C76.0775 11.4507 75.3415 11.12 74.3815 11.12C73.6775 11.12 72.8988 11.3333 72.0455 11.76C71.1922 12.1867 70.3922 13.0187 69.6455 14.256V23.408C69.6455 24.1547 69.6775 24.592 69.7415 24.72C69.8055 24.848 70.0082 24.9333 70.3495 24.976L72.1095 25.168V26H64.5575V25.168L66.3175 24.976C66.6588 24.9333 66.8615 24.848 66.9255 24.72C66.9895 24.592 67.0215 24.1547 67.0215 23.408V12.752C67.0215 12.0053 66.9895 11.568 66.9255 11.44C66.8615 11.312 66.6588 11.2267 66.3175 11.184L64.5575 11.024V10.16H69.4855V12.752C70.2535 11.728 71.1175 10.992 72.0775 10.544C73.0588 10.0747 74.0402 9.84 75.0215 9.84C76.6002 9.84 77.8162 10.3307 78.6695 11.312C79.5442 12.272 79.9815 13.6373 79.9815 15.408V23.408C79.9815 24.1547 80.0135 24.592 80.0775 24.72C80.1415 24.848 80.3442 24.9333 80.6855 24.976L82.4455 25.168ZM96.5198 12.56L91.8478 26H89.7678L85.0638 12.56C84.8504 11.9413 84.6904 11.568 84.5838 11.44C84.4771 11.312 84.2531 11.2267 83.9118 11.184L82.2797 11.024V10.16H89.5758V11.024L87.9438 11.184C87.6024 11.2267 87.4211 11.312 87.3998 11.44C87.3784 11.5467 87.4744 11.92 87.6878 12.56L91.5598 23.696L95.3678 12.56C95.5811 11.92 95.6771 11.5467 95.6558 11.44C95.6344 11.312 95.4531 11.2267 95.1118 11.184L93.4478 11.024V10.16H99.2718V11.024L97.6398 11.184C97.2984 11.2267 97.0744 11.312 96.9678 11.44C96.8824 11.5467 96.7331 11.92 96.5198 12.56ZM114.434 17.744V18.384C114.434 20.7947 113.826 22.7253 112.61 24.176C111.415 25.6053 109.708 26.32 107.49 26.32C105.292 26.32 103.586 25.6053 102.37 24.176C101.175 22.7253 100.578 20.7947 100.578 18.384V17.744C100.578 15.3547 101.175 13.4453 102.37 12.016C103.564 10.5653 105.271 9.84 107.49 9.84C109.708 9.84 111.415 10.5653 112.61 12.016C113.826 13.4453 114.434 15.3547 114.434 17.744ZM111.554 17.104C111.554 14.8853 111.202 13.296 110.498 12.336C109.815 11.3547 108.812 10.864 107.49 10.864C106.188 10.864 105.186 11.3547 104.482 12.336C103.799 13.296 103.458 14.8853 103.458 17.104V19.024C103.458 21.264 103.799 22.8747 104.482 23.856C105.186 24.816 106.188 25.296 107.49 25.296C108.812 25.296 109.815 24.816 110.498 23.856C111.202 22.8747 111.554 21.264 111.554 19.024V17.104Z" fill="#0A0C0E"/>
<path d="M36.416 4.24V3.74H35.916V4.24H36.416ZM53.44 4.24H53.94V3.74H53.44V4.24ZM53.44 9.456V9.956H53.94V9.456H53.44ZM52.608 9.456L52.126 9.58911L52.2274 9.956H52.608V9.456ZM51.68 6.096L51.1948 6.2173L51.198 6.22911L51.68 6.096ZM51.456 5.552L51.0088 5.7756L51.0325 5.82298L51.0656 5.86434L51.456 5.552ZM51.04 5.328L50.9419 5.81829L50.9659 5.82308L50.9902 5.82552L51.04 5.328ZM46.336 5.264V4.764H45.836V5.264H46.336ZM46.432 24.72L45.9848 24.9436L45.9848 24.9436L46.432 24.72ZM47.04 24.976L46.978 25.4722L46.9858 25.4731L47.04 24.976ZM48.8 25.168H49.3V24.7196L48.8542 24.6709L48.8 25.168ZM48.8 26V26.5H49.3V26H48.8ZM41.088 26H40.588V26.5H41.088V26ZM41.088 25.168L41.0338 24.6709L40.588 24.7196V25.168H41.088ZM42.848 24.976L42.9022 25.4731L42.91 25.4721L42.848 24.976ZM43.552 5.264H44.052V4.764H43.552V5.264ZM38.816 5.328L38.8658 5.82552L38.8857 5.82352L38.9054 5.81993L38.816 5.328ZM38.368 5.552L37.952 5.27465L37.9454 5.28455L37.9393 5.29475L38.368 5.552ZM38.176 6.096L38.6581 6.22915L38.6611 6.21727L38.176 6.096ZM37.248 9.456V9.956H37.6286L37.73 9.58911L37.248 9.456ZM36.416 9.456H35.916V9.956H36.416V9.456ZM36.416 4.74H53.44V3.74H36.416V4.74ZM52.94 4.24V9.456H53.94V4.24H52.94ZM53.44 8.956H52.608V9.956H53.44V8.956ZM53.09 9.32289L52.162 5.96289L51.198 6.22911L52.126 9.58911L53.09 9.32289ZM52.1651 5.97473C52.0969 5.70205 52.0015 5.43349 51.8464 5.23965L51.0656 5.86434C51.0812 5.88385 51.1351 5.97795 51.1949 6.21727L52.1651 5.97473ZM51.9032 5.32839C51.729 4.97996 51.3828 4.85979 51.0898 4.83048L50.9902 5.82552C51.0206 5.82855 51.0414 5.83283 51.0544 5.83638C51.0674 5.83992 51.0705 5.84215 51.067 5.84023C51.063 5.83809 51.0527 5.83185 51.0404 5.81955C51.0278 5.80694 51.0169 5.79174 51.0088 5.7756L51.9032 5.32839ZM51.1381 4.83771C50.8715 4.7844 50.4648 4.764 49.952 4.764V5.764C50.4632 5.764 50.7818 5.78627 50.9419 5.81829L51.1381 4.83771ZM49.952 4.764H46.336V5.764H49.952V4.764ZM45.836 5.264V23.408H46.836V5.264H45.836ZM45.836 23.408C45.836 23.7863 45.844 24.0962 45.8613 24.3325C45.87 24.4503 45.8814 24.5575 45.8971 24.6497C45.9108 24.7305 45.9343 24.8425 45.9848 24.9436L46.8792 24.4964C46.8977 24.5335 46.8932 24.5428 46.8829 24.4823C46.8746 24.4331 46.866 24.3604 46.8587 24.2595C46.844 24.0585 46.836 23.7763 46.836 23.408H45.836ZM45.9848 24.9436C46.0923 25.1587 46.2831 25.2756 46.438 25.3408C46.5982 25.4083 46.7844 25.4479 46.978 25.4721L47.102 24.4799C46.9543 24.4614 46.8684 24.437 46.826 24.4192C46.7782 24.399 46.8357 24.4093 46.8792 24.4964L45.9848 24.9436ZM46.9858 25.4731L48.7458 25.6651L48.8542 24.6709L47.0942 24.4789L46.9858 25.4731ZM48.3 25.168V26H49.3V25.168H48.3ZM48.8 25.5H41.088V26.5H48.8V25.5ZM41.588 26V25.168H40.588V26H41.588ZM41.1422 25.6651L42.9022 25.4731L42.7938 24.4789L41.0338 24.6709L41.1422 25.6651ZM42.91 25.4721C43.1036 25.4479 43.2898 25.4083 43.45 25.3408C43.6049 25.2756 43.7957 25.1587 43.9032 24.9436L43.0088 24.4964C43.0523 24.4093 43.1098 24.399 43.062 24.4192C43.0196 24.437 42.9337 24.4614 42.786 24.4799L42.91 25.4721ZM43.9032 24.9436C43.9537 24.8425 43.9772 24.7305 43.9909 24.6497C44.0066 24.5575 44.018 24.4503 44.0267 24.3325C44.044 24.0962 44.052 23.7863 44.052 23.408H43.052C43.052 23.7763 43.044 24.0585 43.0293 24.2595C43.022 24.3604 43.0134 24.4331 43.0051 24.4823C42.9948 24.5428 42.9903 24.5335 43.0088 24.4964L43.9032 24.9436ZM44.052 23.408V5.264H43.052V23.408H44.052ZM43.552 4.764H39.904V5.764H43.552V4.764ZM39.904 4.764C39.4078 4.764 39.0077 4.78495 38.7266 4.83606L38.9054 5.81993C39.0936 5.78572 39.4189 5.764 39.904 5.764V4.764ZM38.7662 4.83048C38.4656 4.86055 38.1494 4.9785 37.952 5.27465L38.784 5.82935C38.7801 5.8352 38.7754 5.84047 38.7708 5.84441C38.7664 5.8482 38.7646 5.84873 38.7676 5.84721C38.7749 5.84359 38.8032 5.83177 38.8658 5.82552L38.7662 4.83048ZM37.9393 5.29475C37.8347 5.46903 37.7566 5.71204 37.6909 5.97473L38.6611 6.21727C38.7234 5.96795 38.7733 5.8483 38.7967 5.80924L37.9393 5.29475ZM37.694 5.96289L36.766 9.32289L37.73 9.58911L38.658 6.22911L37.694 5.96289ZM37.248 8.956H36.416V9.956H37.248V8.956ZM36.916 9.456V4.24H35.916V9.456H36.916ZM57.459 6.096L57.0942 6.43797L57.1053 6.44974L57.117 6.46077L57.459 6.096ZM57.459 3.536L57.117 3.17123L57.1111 3.17674L57.1054 3.18245L57.459 3.536ZM59.987 3.536L59.6334 3.88955L59.6391 3.89525L59.645 3.90077L59.987 3.536ZM59.987 6.096L59.6334 5.74244V5.74245L59.987 6.096ZM54.995 11.024H54.495V11.4806L54.9497 11.5219L54.995 11.024ZM54.995 10.16V9.66H54.495V10.16H54.995ZM60.083 10.16H60.583V9.66H60.083V10.16ZM60.179 24.72L60.6262 24.4964H60.6262L60.179 24.72ZM60.787 24.976L60.725 25.4722L60.7328 25.4731L60.787 24.976ZM62.547 25.168H63.047V24.7196L62.6012 24.6709L62.547 25.168ZM62.547 26V26.5H63.047V26H62.547ZM54.995 26H54.495V26.5H54.995V26ZM54.995 25.168L54.9408 24.6709L54.495 24.7196V25.168H54.995ZM56.755 24.976L56.8092 25.4731L56.817 25.4721L56.755 24.976ZM57.363 11.44L56.9158 11.6636V11.6636L57.363 11.44ZM56.755 11.184L56.817 10.6879L56.8087 10.6868L56.8003 10.6861L56.755 11.184ZM58.739 6.076C58.341 6.076 58.0405 5.95582 57.801 5.73123L57.117 6.46077C57.5601 6.87618 58.113 7.076 58.739 7.076V6.076ZM57.8238 5.75403C57.6029 5.51844 57.479 5.20944 57.479 4.784H56.479C56.479 5.42523 56.6751 5.99089 57.0942 6.43797L57.8238 5.75403ZM57.479 4.784C57.479 4.38562 57.5989 4.10316 57.8126 3.88955L57.1054 3.18245C56.6791 3.60884 56.479 4.15837 56.479 4.784H57.479ZM57.801 3.90077C58.0405 3.67618 58.341 3.556 58.739 3.556V2.556C58.113 2.556 57.5601 2.75582 57.117 3.17123L57.801 3.90077ZM58.739 3.556C59.1374 3.556 59.4198 3.67594 59.6334 3.88955L60.3406 3.18245C59.9142 2.75606 59.3646 2.556 58.739 2.556V3.556ZM59.645 3.90077C59.8754 4.11677 59.999 4.39571 59.999 4.784H60.999C60.999 4.14828 60.7812 3.59523 60.329 3.17123L59.645 3.90077ZM59.999 4.784C59.999 5.19998 59.8707 5.50514 59.6334 5.74244L60.3406 6.44955C60.7859 6.00419 60.999 5.43468 60.999 4.784H59.999ZM59.6334 5.74245C59.4198 5.95606 59.1374 6.076 58.739 6.076V7.076C59.3646 7.076 59.9142 6.87594 60.3406 6.44955L59.6334 5.74245ZM55.495 11.024V10.16H54.495V11.024H55.495ZM54.995 10.66H60.083V9.66H54.995V10.66ZM59.583 10.16V23.408H60.583V10.16H59.583ZM59.583 23.408C59.583 23.7863 59.591 24.0962 59.6083 24.3325C59.617 24.4503 59.6284 24.5575 59.6441 24.6497C59.6578 24.7305 59.6813 24.8425 59.7318 24.9436L60.6262 24.4964C60.6447 24.5335 60.6402 24.5428 60.6299 24.4823C60.6216 24.4331 60.613 24.3604 60.6057 24.2595C60.591 24.0585 60.583 23.7763 60.583 23.408H59.583ZM59.7318 24.9436C59.8393 25.1587 60.0301 25.2756 60.185 25.3408C60.3452 25.4083 60.5314 25.4479 60.725 25.4721L60.849 24.4799C60.7013 24.4614 60.6154 24.437 60.573 24.4192C60.5252 24.399 60.5827 24.4093 60.6262 24.4964L59.7318 24.9436ZM60.7328 25.4731L62.4928 25.6651L62.6012 24.6709L60.8412 24.4789L60.7328 25.4731ZM62.047 25.168V26H63.047V25.168H62.047ZM62.547 25.5H54.995V26.5H62.547V25.5ZM55.495 26V25.168H54.495V26H55.495ZM55.0492 25.6651L56.8092 25.4731L56.7008 24.4789L54.9408 24.6709L55.0492 25.6651ZM56.817 25.4721C57.0106 25.4479 57.1968 25.4083 57.357 25.3408C57.5119 25.2756 57.7027 25.1587 57.8102 24.9436L56.9158 24.4964C56.9593 24.4093 57.0168 24.399 56.969 24.4192C56.9266 24.437 56.8407 24.4614 56.693 24.4799L56.817 25.4721ZM57.8102 24.9436C57.8607 24.8425 57.8842 24.7305 57.8979 24.6497C57.9136 24.5575 57.925 24.4503 57.9337 24.3325C57.951 24.0962 57.959 23.7863 57.959 23.408H56.959C56.959 23.7763 56.951 24.0585 56.9363 24.2595C56.929 24.3604 56.9204 24.4331 56.9121 24.4823C56.9018 24.5428 56.8973 24.5335 56.9158 24.4964L57.8102 24.9436ZM57.959 23.408V12.752H56.959V23.408H57.959ZM57.959 12.752C57.959 12.3737 57.951 12.0638 57.9337 11.8275C57.925 11.7097 57.9136 11.6025 57.8979 11.5103C57.8842 11.4295 57.8607 11.3175 57.8102 11.2164L56.9158 11.6636C56.8973 11.6265 56.9018 11.6172 56.9121 11.6777C56.9204 11.7269 56.929 11.7996 56.9363 11.9005C56.951 12.1015 56.959 12.3837 56.959 12.752H57.959ZM57.8102 11.2164C57.7027 11.0013 57.5119 10.8844 57.357 10.8192C57.1968 10.7517 57.0106 10.7121 56.817 10.6879L56.693 11.6801C56.8407 11.6986 56.9266 11.723 56.969 11.7408C57.0168 11.761 56.9593 11.7507 56.9158 11.6636L57.8102 11.2164ZM56.8003 10.6861L55.0403 10.5261L54.9497 11.5219L56.7097 11.6819L56.8003 10.6861ZM82.4455 25.168H82.9455V24.7196L82.4997 24.6709L82.4455 25.168ZM82.4455 26V26.5H82.9455V26H82.4455ZM74.8935 26H74.3935V26.5H74.8935V26ZM74.8935 25.168L74.8393 24.6709L74.3935 24.7196V25.168H74.8935ZM76.6535 24.976L76.7077 25.4731L76.7155 25.4721L76.6535 24.976ZM77.2615 24.72L76.8143 24.4964L76.8143 24.4964L77.2615 24.72ZM76.5895 12.112L76.1941 12.4181L76.1991 12.4243L76.5895 12.112ZM72.0455 11.76L72.2691 12.2072L72.0455 11.76ZM69.6455 14.256L69.2174 13.9977L69.1455 14.1168V14.256H69.6455ZM69.7415 24.72L70.1887 24.4964L69.7415 24.72ZM70.3495 24.976L70.2875 25.4722L70.2953 25.4731L70.3495 24.976ZM72.1095 25.168H72.6095V24.7196L72.1637 24.6709L72.1095 25.168ZM72.1095 26V26.5H72.6095V26H72.1095ZM64.5575 26H64.0575V26.5H64.5575V26ZM64.5575 25.168L64.5033 24.6709L64.0575 24.7196V25.168H64.5575ZM66.3175 24.976L66.3717 25.4731L66.3795 25.4721L66.3175 24.976ZM66.9255 11.44L66.4783 11.6636V11.6636L66.9255 11.44ZM66.3175 11.184L66.3795 10.6879L66.3712 10.6868L66.3628 10.6861L66.3175 11.184ZM64.5575 11.024H64.0575V11.4806L64.5122 11.5219L64.5575 11.024ZM64.5575 10.16V9.66H64.0575V10.16H64.5575ZM69.4855 10.16H69.9855V9.66H69.4855V10.16ZM69.4855 12.752H68.9855V14.252L69.8855 13.052L69.4855 12.752ZM72.0775 10.544L72.289 10.9971L72.2932 10.9951L72.0775 10.544ZM78.6695 11.312L78.2921 11.6402L78.2999 11.6487L78.6695 11.312ZM80.0775 24.72L80.5247 24.4964V24.4964L80.0775 24.72ZM80.6855 24.976L80.6235 25.4722L80.6313 25.4731L80.6855 24.976ZM81.9455 25.168V26H82.9455V25.168H81.9455ZM82.4455 25.5H74.8935V26.5H82.4455V25.5ZM75.3935 26V25.168H74.3935V26H75.3935ZM74.9477 25.6651L76.7077 25.4731L76.5993 24.4789L74.8393 24.6709L74.9477 25.6651ZM76.7155 25.4721C76.9091 25.4479 77.0953 25.4083 77.2555 25.3408C77.4104 25.2756 77.6012 25.1587 77.7087 24.9436L76.8143 24.4964C76.8578 24.4093 76.9153 24.399 76.8675 24.4192C76.8251 24.437 76.7392 24.4614 76.5915 24.4799L76.7155 25.4721ZM77.7087 24.9436C77.7592 24.8425 77.7827 24.7305 77.7964 24.6497C77.8121 24.5575 77.8235 24.4503 77.8322 24.3325C77.8495 24.0962 77.8575 23.7863 77.8575 23.408H76.8575C76.8575 23.7763 76.8495 24.0585 76.8348 24.2595C76.8275 24.3604 76.8189 24.4331 76.8106 24.4823C76.8003 24.5428 76.7958 24.5335 76.8143 24.4964L77.7087 24.9436ZM77.8575 23.408V15.44H76.8575V23.408H77.8575ZM77.8575 15.44C77.8575 13.8381 77.6039 12.5796 76.9799 11.7997L76.1991 12.4243C76.5991 12.9244 76.8575 13.8846 76.8575 15.44H77.8575ZM76.9849 11.8059C76.3634 11.0031 75.4703 10.62 74.3815 10.62V11.62C75.2127 11.62 75.7916 11.8982 76.1941 12.4181L76.9849 11.8059ZM74.3815 10.62C73.5773 10.62 72.7212 10.8631 71.8219 11.3128L72.2691 12.2072C73.0765 11.8035 73.7777 11.62 74.3815 11.62V10.62ZM71.8219 11.3128C70.8509 11.7983 69.9896 12.7181 69.2174 13.9977L70.0736 14.5143C70.7948 13.3193 71.5334 12.575 72.2691 12.2072L71.8219 11.3128ZM69.1455 14.256V23.408H70.1455V14.256H69.1455ZM69.1455 23.408C69.1455 23.7863 69.1535 24.0962 69.1708 24.3325C69.1795 24.4503 69.1909 24.5575 69.2066 24.6497C69.2203 24.7305 69.2438 24.8425 69.2943 24.9436L70.1887 24.4964C70.2072 24.5335 70.2027 24.5428 70.1924 24.4823C70.1841 24.4331 70.1755 24.3604 70.1682 24.2595C70.1535 24.0585 70.1455 23.7763 70.1455 23.408H69.1455ZM69.2943 24.9436C69.4018 25.1587 69.5926 25.2756 69.7475 25.3408C69.9077 25.4083 70.0939 25.4479 70.2875 25.4721L70.4115 24.4799C70.2638 24.4614 70.1779 24.437 70.1355 24.4192C70.0877 24.399 70.1452 24.4093 70.1887 24.4964L69.2943 24.9436ZM70.2953 25.4731L72.0553 25.6651L72.1637 24.6709L70.4037 24.4789L70.2953 25.4731ZM71.6095 25.168V26H72.6095V25.168H71.6095ZM72.1095 25.5H64.5575V26.5H72.1095V25.5ZM65.0575 26V25.168H64.0575V26H65.0575ZM64.6117 25.6651L66.3717 25.4731L66.2633 24.4789L64.5033 24.6709L64.6117 25.6651ZM66.3795 25.4721C66.5731 25.4479 66.7593 25.4083 66.9195 25.3408C67.0744 25.2756 67.2652 25.1587 67.3727 24.9436L66.4783 24.4964C66.5218 24.4093 66.5793 24.399 66.5315 24.4192C66.4891 24.437 66.4032 24.4614 66.2555 24.4799L66.3795 25.4721ZM67.3727 24.9436C67.4232 24.8425 67.4467 24.7305 67.4604 24.6497C67.4761 24.5575 67.4875 24.4503 67.4962 24.3325C67.5135 24.0962 67.5215 23.7863 67.5215 23.408H66.5215C66.5215 23.7763 66.5135 24.0585 66.4988 24.2595C66.4915 24.3604 66.4829 24.4331 66.4746 24.4823C66.4643 24.5428 66.4598 24.5335 66.4783 24.4964L67.3727 24.9436ZM67.5215 23.408V12.752H66.5215V23.408H67.5215ZM67.5215 12.752C67.5215 12.3737 67.5135 12.0638 67.4962 11.8275C67.4875 11.7097 67.4761 11.6025 67.4604 11.5103C67.4467 11.4295 67.4232 11.3175 67.3727 11.2164L66.4783 11.6636C66.4598 11.6265 66.4643 11.6172 66.4746 11.6777C66.4829 11.7269 66.4915 11.7996 66.4988 11.9005C66.5135 12.1015 66.5215 12.3837 66.5215 12.752H67.5215ZM67.3727 11.2164C67.2652 11.0013 67.0744 10.8844 66.9195 10.8192C66.7593 10.7517 66.5731 10.7121 66.3795 10.6879L66.2555 11.6801C66.4032 11.6986 66.4891 11.723 66.5315 11.7408C66.5793 11.761 66.5218 11.7507 66.4783 11.6636L67.3727 11.2164ZM66.3628 10.6861L64.6028 10.5261L64.5122 11.5219L66.2722 11.6819L66.3628 10.6861ZM65.0575 11.024V10.16H64.0575V11.024H65.0575ZM64.5575 10.66H69.4855V9.66H64.5575V10.66ZM68.9855 10.16V12.752H69.9855V10.16H68.9855ZM69.8855 13.052C70.6144 12.0802 71.4174 11.4038 72.2889 10.9971L71.8661 10.0909C70.8176 10.5802 69.8926 11.3758 69.0855 12.452L69.8855 13.052ZM72.2932 10.9951C73.2146 10.5544 74.1226 10.34 75.0215 10.34V9.34C73.9577 9.34 72.9031 9.59492 71.8618 10.0929L72.2932 10.9951ZM75.0215 10.34C76.4892 10.34 77.554 10.7911 78.2922 11.6401L79.0468 10.9839C78.0784 9.87023 76.7111 9.34 75.0215 9.34V10.34ZM78.2999 11.6487C79.0643 12.4877 79.4815 13.7161 79.4815 15.408H80.4815C80.4815 13.5585 80.0241 12.0563 79.0391 10.9753L78.2999 11.6487ZM79.4815 15.408V23.408H80.4815V15.408H79.4815ZM79.4815 23.408C79.4815 23.7863 79.4895 24.0962 79.5068 24.3325C79.5155 24.4503 79.5269 24.5575 79.5426 24.6497C79.5563 24.7305 79.5798 24.8425 79.6303 24.9436L80.5247 24.4964C80.5432 24.5335 80.5387 24.5428 80.5284 24.4823C80.5201 24.4331 80.5115 24.3604 80.5042 24.2595C80.4895 24.0585 80.4815 23.7763 80.4815 23.408H79.4815ZM79.6303 24.9436C79.7378 25.1587 79.9286 25.2756 80.0835 25.3408C80.2437 25.4083 80.4299 25.4479 80.6235 25.4721L80.7475 24.4799C80.5998 24.4614 80.5139 24.437 80.4715 24.4192C80.4237 24.399 80.4812 24.4093 80.5247 24.4964L79.6303 24.9436ZM80.6313 25.4731L82.3913 25.6651L82.4997 24.6709L80.7397 24.4789L80.6313 25.4731ZM96.5198 12.56L96.9921 12.7242L96.9941 12.7181L96.5198 12.56ZM91.8478 26V26.5H92.2033L92.32 26.1642L91.8478 26ZM89.7677 26L89.2958 26.1652L89.413 26.5H89.7677V26ZM85.0638 12.56L84.5911 12.723L84.5918 12.7252L85.0638 12.56ZM84.5838 11.44L84.1996 11.7601V11.7601L84.5838 11.44ZM83.9118 11.184L83.9738 10.6877L83.9605 10.6864L83.9118 11.184ZM82.2798 11.024H81.7798V11.4774L82.231 11.5216L82.2798 11.024ZM82.2798 10.16V9.66H81.7798V10.16H82.2798ZM89.5758 10.16H90.0758V9.66H89.5758V10.16ZM89.5758 11.024L89.6245 11.5216L90.0758 11.4774V11.024H89.5758ZM87.9437 11.184L87.8949 10.6862L87.8817 10.6879L87.9437 11.184ZM87.3997 11.44L87.89 11.5381L87.8916 11.5302L87.8929 11.5222L87.3997 11.44ZM87.6878 12.56L87.2134 12.7181L87.2155 12.7242L87.6878 12.56ZM91.5597 23.696L91.0875 23.8602L91.5637 25.2298L92.0329 23.8578L91.5597 23.696ZM95.3678 12.56L95.8409 12.7218L95.8421 12.7181L95.3678 12.56ZM95.6558 11.44L95.1626 11.5222L95.1639 11.5302L95.1655 11.5381L95.6558 11.44ZM95.1118 11.184L95.1738 10.6879L95.1667 10.687L95.1596 10.6863L95.1118 11.184ZM93.4478 11.024H92.9478V11.4782L93.3999 11.5217L93.4478 11.024ZM93.4478 10.16V9.66H92.9478V10.16H93.4478ZM99.2718 10.16H99.7718V9.66H99.2718V10.16ZM99.2718 11.024L99.3205 11.5216L99.7718 11.4774V11.024H99.2718ZM97.6398 11.184L97.5909 10.6862L97.5777 10.6879L97.6398 11.184ZM96.9678 11.44L96.5836 11.1198L96.5773 11.1277L96.9678 11.44ZM96.0475 12.3958L91.3755 25.8358L92.32 26.1642L96.992 12.7242L96.0475 12.3958ZM91.8478 25.5H89.7677V26.5H91.8478V25.5ZM90.2397 25.8348L85.5357 12.3948L84.5918 12.7252L89.2958 26.1652L90.2397 25.8348ZM85.5364 12.397C85.4279 12.0822 85.3301 11.8215 85.2433 11.619C85.1638 11.4335 85.073 11.246 84.9679 11.1199L84.1996 11.7601C84.1943 11.7537 84.2055 11.7665 84.2323 11.8168C84.257 11.8631 84.2876 11.9275 84.3242 12.013C84.3974 12.1839 84.4863 12.4191 84.5911 12.723L85.5364 12.397ZM84.9679 11.1199C84.7285 10.8327 84.3276 10.7321 83.9738 10.6879L83.8497 11.6801C83.9963 11.6985 84.0954 11.7235 84.1578 11.7472C84.2226 11.7719 84.2201 11.7847 84.1996 11.7601L84.9679 11.1199ZM83.9605 10.6864L82.3285 10.5264L82.231 11.5216L83.863 11.6816L83.9605 10.6864ZM82.7798 11.024V10.16H81.7798V11.024H82.7798ZM82.2798 10.66H89.5758V9.66H82.2798V10.66ZM89.0758 10.16V11.024H90.0758V10.16H89.0758ZM89.527 10.5264L87.895 10.6864L87.9925 11.6816L89.6245 11.5216L89.527 10.5264ZM87.8817 10.6879C87.6906 10.7118 87.4994 10.752 87.3389 10.8276C87.1837 10.9006 86.9565 11.0579 86.9066 11.3578L87.8929 11.5222C87.8797 11.6015 87.8422 11.6607 87.8083 11.6964C87.7784 11.7278 87.7564 11.7363 87.7646 11.7324C87.7716 11.7291 87.7935 11.7202 87.8367 11.7096C87.8789 11.6993 87.9346 11.689 88.0058 11.6801L87.8817 10.6879ZM86.9095 11.3419C86.8853 11.4626 86.9017 11.5826 86.9117 11.6469C86.9245 11.7294 86.9455 11.8234 86.9715 11.9245C87.0238 12.1278 87.1053 12.3939 87.2134 12.7181L88.1621 12.4019C88.0568 12.0861 87.9837 11.8455 87.94 11.6755C87.918 11.5899 87.9056 11.5306 87.8998 11.4931C87.8911 11.4374 87.9035 11.4708 87.89 11.5381L86.9095 11.3419ZM87.2155 12.7242L91.0875 23.8602L92.032 23.5318L88.16 12.3958L87.2155 12.7242ZM92.0329 23.8578L95.8409 12.7218L94.8946 12.3982L91.0866 23.5342L92.0329 23.8578ZM95.8421 12.7181C95.9502 12.3939 96.0317 12.1278 96.084 11.9245C96.11 11.8234 96.131 11.7294 96.1438 11.6469C96.1538 11.5826 96.1702 11.4626 96.146 11.3419L95.1655 11.5381C95.152 11.4708 95.1644 11.4374 95.1557 11.4931C95.1499 11.5306 95.1375 11.5899 95.1155 11.6755C95.0718 11.8455 94.9987 12.0861 94.8934 12.4019L95.8421 12.7181ZM96.1489 11.3578C96.099 11.0579 95.8718 10.9006 95.7166 10.8276C95.5561 10.752 95.3649 10.7118 95.1738 10.6879L95.0497 11.6801C95.1209 11.689 95.1766 11.6993 95.2188 11.7096C95.262 11.7202 95.2839 11.7291 95.2909 11.7324C95.2991 11.7363 95.2771 11.7278 95.2472 11.6964C95.2133 11.6607 95.1758 11.6015 95.1626 11.5222L96.1489 11.3578ZM95.1596 10.6863L93.4956 10.5263L93.3999 11.5217L95.0639 11.6817L95.1596 10.6863ZM93.9478 11.024V10.16H92.9478V11.024H93.9478ZM93.4478 10.66H99.2718V9.66H93.4478V10.66ZM98.7718 10.16V11.024H99.7718V10.16H98.7718ZM99.223 10.5264L97.591 10.6864L97.6885 11.6816L99.3205 11.5216L99.223 10.5264ZM97.5777 10.6879C97.2239 10.7321 96.823 10.8327 96.5836 11.1199L97.3519 11.7601C97.3314 11.7847 97.3289 11.7719 97.3937 11.7472C97.4561 11.7235 97.5552 11.6985 97.7018 11.6801L97.5777 10.6879ZM96.5773 11.1277C96.4808 11.2482 96.3977 11.4388 96.3275 11.6143C96.2476 11.8141 96.1534 12.0779 96.0454 12.4019L96.9941 12.7181C97.0994 12.4021 97.1866 12.1592 97.256 11.9857C97.3351 11.7878 97.3693 11.7384 97.3582 11.7523L96.5773 11.1277ZM112.61 24.176L112.227 23.8548L112.226 23.8553L112.61 24.176ZM102.37 24.176L101.984 24.4939L101.989 24.5L102.37 24.176ZM102.37 12.016L102.753 12.3367L102.756 12.3339L102.37 12.016ZM112.61 12.016L112.224 12.3339L112.229 12.34L112.61 12.016ZM110.498 12.336L110.087 12.6216L110.095 12.6317L110.498 12.336ZM104.482 12.336L104.075 12.0445L104.074 12.0462L104.482 12.336ZM104.482 23.856L104.071 24.1416L104.079 24.1517L104.482 23.856ZM110.498 23.856L110.091 23.5645L110.09 23.5662L110.498 23.856ZM113.934 17.744V18.384H114.934V17.744H113.934ZM113.934 18.384C113.934 20.7101 113.348 22.5165 112.227 23.8548L112.993 24.4972C114.303 22.9342 114.934 20.8793 114.934 18.384H113.934ZM112.226 23.8553C111.145 25.149 109.592 25.82 107.49 25.82V26.82C109.825 26.82 111.685 26.0616 112.993 24.4967L112.226 23.8553ZM107.49 25.82C105.411 25.82 103.855 25.1501 102.751 23.852L101.989 24.5C103.317 26.0605 105.174 26.82 107.49 26.82V25.82ZM102.756 23.8581C101.654 22.5198 101.078 20.7121 101.078 18.384H100.078C100.078 20.8772 100.697 22.9309 101.984 24.4939L102.756 23.8581ZM101.078 18.384V17.744H100.078V18.384H101.078ZM101.078 17.744C101.078 15.4381 101.653 13.6531 102.753 12.3367L101.986 11.6953C100.697 13.2375 100.078 15.2712 100.078 17.744H101.078ZM102.756 12.3339C103.838 11.0198 105.391 10.34 107.49 10.34V9.34C105.152 9.34 103.291 10.1108 101.984 11.6981L102.756 12.3339ZM107.49 10.34C109.589 10.34 111.142 11.0198 112.224 12.3339L112.996 11.6981C111.689 10.1108 109.828 9.34 107.49 9.34V10.34ZM112.229 12.34C113.349 13.6564 113.934 15.4401 113.934 17.744H114.934C114.934 15.2692 114.303 13.2342 112.991 11.692L112.229 12.34ZM112.054 17.104C112.054 14.8583 111.702 13.1333 110.901 12.0403L110.095 12.6317C110.701 13.4587 111.054 14.9124 111.054 17.104H112.054ZM110.908 12.0505C110.121 10.9189 108.956 10.364 107.49 10.364V11.364C108.669 11.364 109.509 11.7904 110.087 12.6215L110.908 12.0505ZM107.49 10.364C106.042 10.364 104.882 10.9209 104.075 12.0445L104.888 12.6275C105.49 11.7885 106.335 11.364 107.49 11.364V10.364ZM104.074 12.0462C103.298 13.1379 102.958 14.86 102.958 17.104H103.958C103.958 14.9106 104.3 13.4541 104.889 12.6258L104.074 12.0462ZM102.958 17.104V19.024H103.958V17.104H102.958ZM102.958 19.024C102.958 21.2897 103.298 23.0302 104.071 24.1415L104.892 23.5705C104.3 22.7191 103.958 21.2383 103.958 19.024H102.958ZM104.079 24.1517C104.886 25.2534 106.046 25.796 107.49 25.796V24.796C106.33 24.796 105.485 24.3786 104.885 23.5603L104.079 24.1517ZM107.49 25.796C108.951 25.796 110.116 25.2554 110.905 24.1458L110.09 23.5662C109.514 24.3766 108.674 24.796 107.49 24.796V25.796ZM110.904 24.1475C111.702 23.0348 112.054 21.2914 112.054 19.024H111.054C111.054 21.2366 110.701 22.7146 110.091 23.5645L110.904 24.1475ZM112.054 19.024V17.104H111.054V19.024H112.054Z" fill="#0A0C0E"/>
<rect x="125" y="4.5" width="44" height="21" rx="10.5" fill="#22B829"/>
<path d="M137.105 18.5V11.2246H139.918C140.686 11.2246 141.28 11.3971 141.7 11.7422C142.123 12.0872 142.335 12.5446 142.335 13.1143C142.335 13.5342 142.221 13.8776 141.993 14.1445C141.769 14.4115 141.461 14.5986 141.07 14.7061V14.7158C141.503 14.7679 141.868 14.9421 142.164 15.2383C142.464 15.5312 142.613 15.9365 142.613 16.4541C142.613 17.0661 142.395 17.5609 141.959 17.9385C141.526 18.3128 140.888 18.5 140.045 18.5H137.105ZM138.375 17.4502H139.908C140.348 17.4502 140.688 17.3607 140.929 17.1816C141.17 17.0026 141.29 16.7454 141.29 16.4102C141.29 16.0716 141.171 15.8047 140.934 15.6094C140.699 15.4141 140.367 15.3164 139.938 15.3164H138.375V17.4502ZM138.375 14.3057H139.859C140.23 14.3057 140.52 14.2145 140.729 14.0322C140.94 13.8467 141.046 13.5993 141.046 13.29C141.046 12.9775 140.94 12.7301 140.729 12.5479C140.52 12.3656 140.23 12.2744 139.859 12.2744H138.375V14.3057ZM145.548 18.6172C145.034 18.6172 144.588 18.5016 144.21 18.2705C143.833 18.0394 143.541 17.722 143.336 17.3184C143.134 16.9115 143.033 16.4476 143.033 15.9268C143.033 15.4027 143.138 14.9388 143.346 14.5352C143.557 14.1283 143.849 13.8092 144.22 13.5781C144.591 13.3438 145.017 13.2266 145.499 13.2266C145.994 13.2266 146.427 13.3405 146.798 13.5684C147.169 13.7962 147.457 14.112 147.662 14.5156C147.867 14.916 147.97 15.3799 147.97 15.9072V16.2441H144.239C144.256 16.6641 144.379 17.0026 144.611 17.2598C144.842 17.5169 145.164 17.6455 145.577 17.6455C145.887 17.6455 146.142 17.5788 146.344 17.4453C146.546 17.3086 146.682 17.1296 146.754 16.9082H147.906C147.841 17.2435 147.698 17.5397 147.477 17.7969C147.259 18.054 146.984 18.2559 146.652 18.4023C146.32 18.5456 145.952 18.6172 145.548 18.6172ZM144.249 15.3945H146.788C146.749 15.0267 146.616 14.737 146.388 14.5254C146.163 14.3105 145.874 14.2031 145.519 14.2031C145.161 14.2031 144.869 14.3105 144.645 14.5254C144.423 14.737 144.292 15.0267 144.249 15.3945ZM151.329 13.3438V14.335H150.28V17.0205C150.28 17.2061 150.317 17.3346 150.392 17.4062C150.467 17.4746 150.604 17.5088 150.802 17.5088H151.329V18.5H150.587C150.063 18.5 149.674 18.3942 149.42 18.1826C149.17 17.971 149.044 17.6439 149.044 17.2012V14.335H148.146V13.3438H149.044V11.9375H150.28V13.3438H151.329ZM153.595 18.583C153.081 18.583 152.655 18.4544 152.316 18.1973C151.981 17.9368 151.813 17.5495 151.813 17.0352C151.813 16.6445 151.907 16.3434 152.096 16.1318C152.288 15.917 152.537 15.7607 152.843 15.6631C153.153 15.5654 153.485 15.4987 153.839 15.4629C154.318 15.4076 154.652 15.3587 154.84 15.3164C155.029 15.2741 155.124 15.165 155.124 14.9893V14.9502C155.124 14.7288 155.039 14.5482 154.87 14.4082C154.704 14.2682 154.474 14.1982 154.181 14.1982C153.882 14.1982 153.638 14.2682 153.449 14.4082C153.263 14.5482 153.162 14.7272 153.146 14.9453H151.96C151.989 14.4342 152.202 14.0225 152.599 13.71C152.996 13.3975 153.532 13.2412 154.206 13.2412C154.876 13.2412 155.4 13.3975 155.778 13.71C156.156 14.0225 156.344 14.4473 156.344 14.9844V18.5H155.133V17.7725H155.114C154.99 18.0003 154.811 18.1924 154.577 18.3486C154.342 18.5049 154.015 18.583 153.595 18.583ZM153.898 17.6699C154.302 17.6699 154.608 17.5658 154.816 17.3574C155.024 17.1458 155.129 16.8903 155.129 16.5908V16.0342C155.054 16.083 154.909 16.1286 154.694 16.1709C154.479 16.21 154.245 16.249 153.991 16.2881C153.727 16.3271 153.498 16.402 153.302 16.5127C153.11 16.6201 153.014 16.791 153.014 17.0254C153.014 17.2272 153.094 17.3851 153.254 17.499C153.413 17.613 153.628 17.6699 153.898 17.6699Z" fill="white"/>
<defs>
<clipPath id="clip0_6_483">
<rect width="30" height="30" fill="white"/>
</clipPath>
</defs>
</svg>
