<svg width="32" height="32" viewBox="0 0 32 32" fill="none" xmlns="http://www.w3.org/2000/svg">
<rect width="32" height="32" rx="16" fill="#F0F2F5"/>
<g clip-path="url(#clip0_38_30)">
<path d="M10.058 14H21.942C22.0342 14 22.1254 14.0191 22.2099 14.0561C22.2944 14.0931 22.3703 14.1473 22.4327 14.2151C22.4952 14.283 22.5429 14.3631 22.5728 14.4503C22.6028 14.5376 22.6143 14.6301 22.6066 14.722L22.0506 21.3887C22.0367 21.5553 21.9608 21.7106 21.8378 21.8238C21.7148 21.937 21.5538 21.9999 21.3866 22H10.6133C10.4461 21.9999 10.2851 21.937 10.1621 21.8238C10.0391 21.7106 9.96317 21.5553 9.94929 21.3887L9.39329 14.722C9.38564 14.6301 9.39714 14.5376 9.42707 14.4503C9.457 14.3631 9.50471 14.283 9.56718 14.2151C9.62965 14.1473 9.70553 14.0931 9.79 14.0561C9.87448 14.0191 9.96572 14 10.058 14ZM11.2266 20.6667H20.7733L21.2173 15.3333H10.7826L11.2266 20.6667ZM16.9426 11.3333H21.3333C21.5101 11.3333 21.6797 11.4036 21.8047 11.5286C21.9297 11.6536 22 11.8232 22 12V12.6667H9.99996V10.6667C9.99996 10.4899 10.0702 10.3203 10.1952 10.1953C10.3202 10.0702 10.4898 10 10.6666 10H15.6093L16.9426 11.3333Z" fill="#0A0C0E"/>
</g>
<defs>
<clipPath id="clip0_38_30">
<rect width="16" height="16" fill="white" transform="translate(8 8)"/>
</clipPath>
</defs>
</svg>
