<svg width="32" height="32" viewBox="0 0 32 32" fill="none" xmlns="http://www.w3.org/2000/svg">
<g clip-path="url(#clip0_5_9545)">
<path fill-rule="evenodd" clip-rule="evenodd" d="M3.80948 0C3.1783 0 2.66663 0.511674 2.66663 1.14286V30.8571C2.66663 31.4883 3.1783 32 3.80948 32H28.1904C28.8216 32 29.3333 31.4883 29.3333 30.8571V1.14286C29.3333 1.13778 29.3333 1.13271 29.3332 1.12764V5.33333L23.9999 0H3.80948Z" fill="#F0F2F5"/>
<path fill-rule="evenodd" clip-rule="evenodd" d="M23.9999 0V5.33333H29.3332L23.9999 0Z" fill="#F0F2F5"/>
</g>
<rect x="1.33325" y="13.3333" width="29.3333" height="13.3333" rx="1.14286" fill="#F3A218"/>
<path d="M7.72276 23.2858V16.6364H10.2163C10.7271 16.6364 11.1557 16.7317 11.502 16.9221C11.8505 17.1126 12.1134 17.3745 12.2909 17.7078C12.4706 18.039 12.5604 18.4156 12.5604 18.8377C12.5604 19.2641 12.4706 19.6429 12.2909 19.9741C12.1113 20.3052 11.8461 20.5661 11.4955 20.7565C11.1448 20.9449 10.713 21.039 10.2 21.039H8.54743V20.0488H10.0377C10.3364 20.0488 10.581 19.9968 10.7715 19.8929C10.9619 19.789 11.1026 19.6462 11.1935 19.4643C11.2866 19.2825 11.3331 19.0736 11.3331 18.8377C11.3331 18.6018 11.2866 18.394 11.1935 18.2143C11.1026 18.0347 10.9609 17.8951 10.7682 17.7955C10.5777 17.6938 10.3321 17.6429 10.0312 17.6429H8.9273V23.2858H7.72276ZM15.8599 23.2858H13.6067V16.6364H15.9054C16.5656 16.6364 17.1327 16.7695 17.6067 17.0358C18.0829 17.2998 18.4487 17.6797 18.7041 18.1754C18.9595 18.671 19.0872 19.2641 19.0872 19.9546C19.0872 20.6472 18.9584 21.2425 18.7008 21.7403C18.4454 22.2381 18.0764 22.6202 17.5937 22.8864C17.1132 23.1526 16.5353 23.2858 15.8599 23.2858ZM14.8112 22.2436H15.8015C16.2647 22.2436 16.6511 22.1591 16.9606 21.9903C17.2701 21.8193 17.5028 21.565 17.6586 21.2273C17.8145 20.8875 17.8924 20.4633 17.8924 19.9546C17.8924 19.4459 17.8145 19.0239 17.6586 18.6884C17.5028 18.3507 17.2723 18.0985 16.9671 17.9319C16.664 17.763 16.2874 17.6786 15.8372 17.6786H14.8112V22.2436ZM20.2317 23.2858V16.6364H24.4914V17.6462H21.4362V19.4514H24.1992V20.4611H21.4362V23.2858H20.2317Z" fill="white"/>
<defs>
<clipPath id="clip0_5_9545">
<rect width="26.6667" height="32" fill="white" transform="translate(2.66663)"/>
</clipPath>
</defs>
</svg>
